# xmcd
#
# Track frame offsets:
# 150
# 15685
# 36712
# 51146
# 70839
# 83939
# 99725
# 117350
# 131338
# 146279
# 160984
# 176215
# 189391
# 209464
# 225198
# 238167
# 251649
# 263498
# 280225
# 293893
# 307593
# 322139
# 338991
#
# Disc length: 4728 seconds
#
#
# Revision: 0
# Processed by: cddbd v1.5.2PL0 Copyright (c) Steve Scherf et al.
# Submitted via: FreeRIP 2.941 
#
DISCID=52127617
DTITLE=varios - coletanea gaucha
DYEAR=2005
DGENRE=gaucha
TTITLE0=gaucho namorador
TTITLE1=barquinho-candeeiro( ao vivo)
TTITLE2=gang da vaneira-tche garotos
TTITLE3=vem na vaneira-joão luiz correa
TTITLE4=me chama no fole-tche barbaridade
TTITLE5=tranco de vaneira
TTITLE6=bica que bica
TTITLE7=tikatukatakuta-tradição
TTITLE8=bicando a neguinha-joão luiz correa
TTITLE9=bastantão-candeeiro(ao vivo)
TTITLE10=remexendo o panelão-tche garotos
TTITLE11=força de uma gaita-tche barbaridade
TTITLE12=tirando lasca-joão luiz correa(ao vivo)
TTITLE13=tu e viado-tche garotos
TTITLE14=olha com mexe essa mulher-candeeiro(ao vivo)
TTITLE15=pe com pe-tradição
TTITLE16=a minha neguinha niguem bica-tche barbaridade
TTITLE17=vanera turbinada-tche garotos
TTITLE18=joão luiz coreea
TTITLE19=farreando com o burrichó
TTITLE20=toque da cordeona-irerê do brasil
TTITLE21=a égua da minha prima-
TTITLE22=marcação do vanerão
EXTD=
EXTT0=
EXTT1=
EXTT2=
EXTT3=
EXTT4=
EXTT5=
EXTT6=
EXTT7=
EXTT8=
EXTT9=
EXTT10=
EXTT11=
EXTT12=
EXTT13=
EXTT14=
EXTT15=
EXTT16=
EXTT17=
EXTT18=
EXTT19=
EXTT20=
EXTT21=
EXTT22=
PLAYORDER=
